<?xml version="1.0" encoding="UTF-8"?>
<svg xmlns="http://www.w3.org/2000/svg" xmlns:xlink="http://www.w3.org/1999/xlink" width="500px" height="500px" viewBox="0 0 500 500" version="1.1">
<g id="surface1">
<path style=" stroke:none;fill-rule:evenodd;fill:rgb(0%,0%,0%);fill-opacity:1;" d="M 352.730469 297.699219 L 352.730469 244.59375 L 289.261719 244.59375 L 289.261719 263.921875 L 331.234375 263.921875 L 331.234375 287.703125 C 327.382812 290.621094 322.835938 292.941406 317.597656 294.71875 C 312.359375 296.464844 306.730469 297.335938 300.707031 297.335938 C 294.207031 297.335938 288.335938 296.191406 283.09375 293.90625 C 277.859375 291.617188 273.34375 288.425781 269.550781 284.390625 C 265.757812 280.359375 262.835938 275.570312 260.789062 270.003906 C 258.742188 264.464844 257.71875 258.414062 257.71875 251.910156 C 257.71875 251.226562 257.730469 250.542969 257.757812 249.867188 C 251.265625 258.996094 245.402344 268.566406 239.03125 277.800781 L 239.113281 278.011719 C 242.246094 285.957031 246.671875 292.851562 252.390625 298.691406 C 258.109375 304.53125 265.003906 309.109375 273.074219 312.417969 C 281.140625 315.730469 290.109375 317.386719 299.984375 317.386719 C 305.523438 317.386719 310.824219 316.875 315.882812 315.851562 C 320.941406 314.828125 325.664062 313.414062 330.058594 311.605469 C 334.453125 309.800781 338.550781 307.691406 342.34375 305.285156 C 346.136719 302.875 349.597656 300.347656 352.730469 297.699219 Z M 314.707031 187.789062 C 319.222656 188.570312 323.40625 189.683594 327.261719 191.128906 C 331.113281 192.574219 334.757812 194.351562 338.1875 196.457031 C 341.621094 198.566406 344.960938 201 348.214844 203.773438 L 334.125 220.570312 C 331.714844 218.523438 329.25 216.660156 326.71875 214.96875 C 324.1875 213.285156 321.539062 211.871094 318.769531 210.726562 C 316 209.582031 312.953125 208.714844 309.648438 208.015625 C 237.082031 192.722656 234.753906 316.5625 147.269531 315.21875 C 165.808594 272.769531 184.359375 230.324219 202.90625 187.875 L 223.496094 187.875 L 236.78125 217.164062 C 257.804688 194.425781 284.851562 182.613281 314.707031 187.789062 Z M 183.171875 284.277344 C 198.039062 274.679688 208.472656 254.929688 222.109375 235.613281 C 220.152344 231.242188 217.28125 224.707031 212.839844 214.429688 C 194.585938 257.019531 192.65625 261.851562 183.171875 284.277344 "/>
</g>
</svg>
